<svg id="logo" xmlns="http://www.w3.org/2000/svg" width="240" height="71.854" viewBox="0 0 240 71.854">
  <rect id="Rectangle_2231" data-name="Rectangle 2231" width="240" height="71.854" transform="translate(0)" fill="rgba(255,255,255,0)"/>
  <g id="logo_old" transform="translate(20 20)">
    <g id="Group_9184" data-name="Group 9184" transform="translate(36.81 4.501)">
      <g id="Group_9182" data-name="Group 9182" transform="translate(0.075)">
        <rect id="Rectangle_2234" data-name="Rectangle 2234" width="1.723" height="14.705" transform="translate(0 0.246)" fill="#151515"/>
        <path id="Path_10698" data-name="Path 10698" d="M97.371,23.555H95.258L87.69,11.834a4.865,4.865,0,0,1-.472-.923h-.062a15.142,15.142,0,0,1,.082,2.021V23.555H85.516V8.85h2.236l7.363,11.537q.462.718.595.984h.041a15.6,15.6,0,0,1-.1-2.164V8.85h1.723Z" transform="translate(-76.529 -8.604)" fill="#151515"/>
        <path id="Path_10699" data-name="Path 10699" d="M128.533,10.409h-4.246V23.555h-1.722V10.409h-4.236V8.85h10.2Z" transform="translate(-91.74 -8.604)" fill="#151515"/>
        <path id="Path_10700" data-name="Path 10700" d="M155.783,23.555h-7.794V8.85h7.465v1.559h-5.742V15.3h5.312v1.548h-5.312V22h6.071Z" transform="translate(-105.49 -8.604)" fill="#151515"/>
        <path id="Path_10701" data-name="Path 10701" d="M184.672,23.555h-2.051l-2.461-4.122a8.949,8.949,0,0,0-.656-.979,3.743,3.743,0,0,0-.651-.662,2.264,2.264,0,0,0-.718-.374,2.946,2.946,0,0,0-.867-.118h-1.415v6.255H174.13V8.85h4.389a6.265,6.265,0,0,1,1.779.241,3.985,3.985,0,0,1,1.415.733,3.412,3.412,0,0,1,.939,1.226,4.067,4.067,0,0,1,.338,1.718,4.135,4.135,0,0,1-.231,1.41,3.672,3.672,0,0,1-.656,1.143,3.975,3.975,0,0,1-1.026.857,5.244,5.244,0,0,1-1.349.548v.041a3.088,3.088,0,0,1,.641.374,3.483,3.483,0,0,1,.518.5,6.594,6.594,0,0,1,.488.651q.241.364.538.846Zm-8.819-13.146v5.332h2.338a3.548,3.548,0,0,0,1.195-.195,2.772,2.772,0,0,0,.948-.559,2.531,2.531,0,0,0,.625-.892,2.983,2.983,0,0,0,.226-1.184,2.306,2.306,0,0,0-.764-1.841,3.283,3.283,0,0,0-2.21-.661Z" transform="translate(-117.609 -8.604)" fill="#151515"/>
        <path id="Path_10702" data-name="Path 10702" d="M213.491,22.338a9.833,9.833,0,0,1-4.922,1.251,6.725,6.725,0,0,1-5.092-2.03,7.446,7.446,0,0,1-1.943-5.373,7.647,7.647,0,0,1,2.159-5.6,7.36,7.36,0,0,1,5.471-2.19,9.316,9.316,0,0,1,4.03.779v1.907a7.742,7.742,0,0,0-4.225-1.128,5.278,5.278,0,0,0-4.05,1.7,6.225,6.225,0,0,0-1.579,4.409,6.229,6.229,0,0,0,1.467,4.384,5.139,5.139,0,0,0,3.979,1.595,6.146,6.146,0,0,0,2.984-.687V17.231h-3.22V15.672h4.943Z" transform="translate(-130.313 -8.391)" fill="#151515"/>
        <path id="Path_10703" data-name="Path 10703" d="M246.438,23.555h-1.908l-1.559-4.122h-6.235l-1.467,4.122h-1.918l5.64-14.705h1.784Zm-4.03-5.671L240.1,11.618a5.935,5.935,0,0,1-.226-.984h-.041a5.54,5.54,0,0,1-.236.984l-2.287,6.266Z" transform="translate(-145.064 -8.604)" fill="#151515"/>
        <path id="Path_10704" data-name="Path 10704" d="M275.747,23.555h-7.629V8.85h1.722V22h5.907Z" transform="translate(-161.181 -8.604)" fill="#151515"/>
        <path id="Path_10705" data-name="Path 10705" d="M303.922,23.555h-1.907l-1.559-4.122h-6.235l-1.467,4.122h-1.918l5.64-14.705h1.784Zm-4.03-5.671-2.307-6.266a5.933,5.933,0,0,1-.226-.984h-.041a5.54,5.54,0,0,1-.236.984L294.8,17.884Z" transform="translate(-171.713 -8.604)" fill="#151515"/>
        <path id="Path_10706" data-name="Path 10706" d="M334.317,23.555h-2.1l-3.384-5.63a5.088,5.088,0,0,1-.339-.728h-.041q-.1.237-.349.728l-3.487,5.63H322.5l4.922-7.394L322.893,8.85h2.112l3.005,5.168a10.457,10.457,0,0,1,.523,1.026h.041a11.4,11.4,0,0,1,.574-1.067l3.128-5.127h1.979l-4.625,7.291Z" transform="translate(-186.393 -8.604)" fill="#151515"/>
        <path id="Path_10707" data-name="Path 10707" d="M363.082,8.85l-4.85,9.27v5.435h-1.723V18.162L351.781,8.85h1.958l3.292,6.645q.061.123.359.9h.031a5.376,5.376,0,0,1,.39-.9l3.445-6.645Z" transform="translate(-199.966 -8.604)" fill="#151515"/>
      </g>
      <g id="Group_9183" data-name="Group 9183" transform="translate(0 19.594)">
        <path id="Path_10708" data-name="Path 10708" d="M70.66,49.159A2.008,2.008,0,0,1,69.846,49a1.981,1.981,0,0,1-.647-.448,2.03,2.03,0,0,1-.425-.671,2.238,2.238,0,0,1-.152-.826v-.012a2.177,2.177,0,0,1,.155-.82,2.144,2.144,0,0,1,.428-.677,1.982,1.982,0,0,1,1.467-.623,2.435,2.435,0,0,1,.5.047,1.932,1.932,0,0,1,.413.135,2.188,2.188,0,0,1,.357.208,3.449,3.449,0,0,1,.325.267l-.217.223a3.281,3.281,0,0,0-.281-.24,1.775,1.775,0,0,0-.313-.19,1.86,1.86,0,0,0-.364-.126,1.827,1.827,0,0,0-.424-.047,1.661,1.661,0,0,0-1.233.53,1.847,1.847,0,0,0-.363.583,1.954,1.954,0,0,0-.131.72v.012a1.925,1.925,0,0,0,.135.724,1.88,1.88,0,0,0,.366.586,1.7,1.7,0,0,0,.548.392,1.634,1.634,0,0,0,.686.144,1.708,1.708,0,0,0,.773-.164,2.479,2.479,0,0,0,.638-.474l.2.2a3.807,3.807,0,0,1-.336.29,2.132,2.132,0,0,1-.369.226,2.086,2.086,0,0,1-.425.146,2.229,2.229,0,0,1-.5.053" transform="translate(-68.622 -44.919)" fill="#151515"/>
        <path id="Path_10709" data-name="Path 10709" d="M83.758,49.159a1.991,1.991,0,0,1-1.493-.636,2.055,2.055,0,0,1-.416-.671,2.216,2.216,0,0,1-.146-.8v-.011a2.2,2.2,0,0,1,.15-.806,2.131,2.131,0,0,1,.419-.676,1.981,1.981,0,0,1,.65-.466,2.06,2.06,0,0,1,2.343.462,2.069,2.069,0,0,1,.416.671,2.227,2.227,0,0,1,.146.8s0,.008,0,.012a2.2,2.2,0,0,1-.149.805,2.122,2.122,0,0,1-.419.676,1.981,1.981,0,0,1-.653.466,2.036,2.036,0,0,1-.846.173m.012-.275a1.681,1.681,0,0,0,1.25-.536,1.8,1.8,0,0,0,.36-.583,1.965,1.965,0,0,0,.129-.715v-.011a1.949,1.949,0,0,0-.132-.718,1.814,1.814,0,0,0-.363-.586,1.712,1.712,0,0,0-.554-.4,1.711,1.711,0,0,0-1.953.389,1.8,1.8,0,0,0-.36.583,1.967,1.967,0,0,0-.129.715v.012a1.946,1.946,0,0,0,.132.717,1.823,1.823,0,0,0,.363.586,1.712,1.712,0,0,0,.554.4,1.677,1.677,0,0,0,.7.146" transform="translate(-74.686 -44.919)" fill="#151515"/>
        <path id="Path_10710" data-name="Path 10710" d="M96.345,45.05h.287l2.829,3.567V45.05h.293v4.1h-.229l-2.888-3.643v3.643h-.293Z" transform="translate(-81.474 -44.98)" fill="#151515"/>
        <path id="Path_10711" data-name="Path 10711" d="M109.994,45.05h.287l2.829,3.567V45.05h.293v4.1h-.229l-2.888-3.643v3.643h-.293Z" transform="translate(-87.802 -44.98)" fill="#151515"/>
        <path id="Path_10712" data-name="Path 10712" d="M123.643,45.05h2.917v.275h-2.612v1.623H126.3v.275h-2.348v1.652h2.641v.275h-2.946Z" transform="translate(-94.129 -44.98)" fill="#151515"/>
        <path id="Path_10713" data-name="Path 10713" d="M137.681,49.159a2.008,2.008,0,0,1-.814-.164,1.981,1.981,0,0,1-.647-.448,2.03,2.03,0,0,1-.425-.671,2.238,2.238,0,0,1-.152-.826v-.012a2.177,2.177,0,0,1,.155-.82,2.144,2.144,0,0,1,.428-.677,1.982,1.982,0,0,1,1.467-.623,2.435,2.435,0,0,1,.5.047,1.932,1.932,0,0,1,.413.135,2.188,2.188,0,0,1,.357.208,3.449,3.449,0,0,1,.325.267l-.217.223a3.2,3.2,0,0,0-.281-.24,1.775,1.775,0,0,0-.313-.19,1.86,1.86,0,0,0-.364-.126,1.826,1.826,0,0,0-.424-.047,1.661,1.661,0,0,0-1.233.53,1.847,1.847,0,0,0-.363.583,1.954,1.954,0,0,0-.131.72v.012a1.925,1.925,0,0,0,.135.724,1.88,1.88,0,0,0,.366.586,1.7,1.7,0,0,0,.548.392,1.634,1.634,0,0,0,.686.144,1.708,1.708,0,0,0,.773-.164,2.479,2.479,0,0,0,.638-.474l.2.2a3.807,3.807,0,0,1-.336.29,2.112,2.112,0,0,1-.369.226,2.086,2.086,0,0,1-.425.146,2.229,2.229,0,0,1-.5.053" transform="translate(-99.692 -44.919)" fill="#151515"/>
        <path id="Path_10714" data-name="Path 10714" d="M149.946,45.325h-1.429V45.05h3.163v.275H150.25V49.15h-.3Z" transform="translate(-105.66 -44.98)" fill="#151515"/>
        <path id="Path_10715" data-name="Path 10715" d="M169.459,45.05h1.689a1.856,1.856,0,0,1,.623.1,1.171,1.171,0,0,1,.441.267.88.88,0,0,1,.263.645v.012a1.013,1.013,0,0,1-.062.37.951.951,0,0,1-.385.472,1.777,1.777,0,0,1-.248.132,2.041,2.041,0,0,1,.351.126,1.092,1.092,0,0,1,.3.2.941.941,0,0,1,.2.281.857.857,0,0,1,.076.372v.011a1.019,1.019,0,0,1-.105.465.99.99,0,0,1-.3.351,1.455,1.455,0,0,1-.462.222,2.142,2.142,0,0,1-.6.079h-1.777Zm1.658,1.9a1.5,1.5,0,0,0,.422-.056,1.007,1.007,0,0,0,.334-.162.739.739,0,0,0,.22-.266.815.815,0,0,0,.079-.366v-.012a.672.672,0,0,0-.263-.552,1.2,1.2,0,0,0-.762-.209h-1.382v1.623Zm.135,1.927a1.394,1.394,0,0,0,.837-.226.72.72,0,0,0,.311-.614v-.012a.665.665,0,0,0-.319-.591,1.7,1.7,0,0,0-.929-.209h-1.388v1.652Z" transform="translate(-115.369 -44.98)" fill="#151515"/>
        <path id="Path_10716" data-name="Path 10716" d="M182.365,45.05h2.917v.275H182.67v1.623h2.348v.275H182.67v1.652h2.641v.275h-2.946Z" transform="translate(-121.352 -44.98)" fill="#151515"/>
        <path id="Path_10717" data-name="Path 10717" d="M195.674,47.527l-1.757-2.478h.381l1.535,2.2,1.541-2.2h.363l-1.757,2.472V49.15h-.3Z" transform="translate(-126.707 -44.979)" fill="#151515"/>
        <path id="Path_10718" data-name="Path 10718" d="M209.261,49.159a1.991,1.991,0,0,1-1.493-.636,2.055,2.055,0,0,1-.416-.671,2.216,2.216,0,0,1-.146-.8v-.011a2.2,2.2,0,0,1,.15-.806,2.132,2.132,0,0,1,.419-.676,1.981,1.981,0,0,1,.65-.466,2.06,2.06,0,0,1,2.342.462,2.069,2.069,0,0,1,.416.671,2.227,2.227,0,0,1,.146.8s0,.008,0,.012a2.2,2.2,0,0,1-.149.805,2.122,2.122,0,0,1-.419.676,1.981,1.981,0,0,1-.653.466,2.036,2.036,0,0,1-.846.173m.012-.275a1.681,1.681,0,0,0,1.25-.536,1.8,1.8,0,0,0,.36-.583,1.965,1.965,0,0,0,.129-.715v-.011a1.949,1.949,0,0,0-.132-.718,1.813,1.813,0,0,0-.363-.586,1.712,1.712,0,0,0-.554-.4,1.712,1.712,0,0,0-1.953.389,1.8,1.8,0,0,0-.36.583,1.967,1.967,0,0,0-.129.715v.012a1.946,1.946,0,0,0,.132.717,1.823,1.823,0,0,0,.363.586,1.712,1.712,0,0,0,.554.4,1.677,1.677,0,0,0,.7.146" transform="translate(-132.867 -44.919)" fill="#151515"/>
        <path id="Path_10719" data-name="Path 10719" d="M221.848,45.05h.287l2.829,3.567V45.05h.293v4.1h-.229l-2.887-3.643v3.643h-.293Z" transform="translate(-139.656 -44.98)" fill="#151515"/>
        <path id="Path_10720" data-name="Path 10720" d="M235.5,45.05h1.365a2.42,2.42,0,0,1,.881.155,2.082,2.082,0,0,1,.691.431,1.914,1.914,0,0,1,.448.647,2.035,2.035,0,0,1,.158.806V47.1a2.052,2.052,0,0,1-.158.808,1.906,1.906,0,0,1-.448.65,2.105,2.105,0,0,1-.691.433,2.376,2.376,0,0,1-.881.158H235.5Zm1.365,3.825a2.062,2.062,0,0,0,.773-.138,1.73,1.73,0,0,0,.586-.375,1.674,1.674,0,0,0,.372-.558,1.8,1.8,0,0,0,.131-.691V47.1a1.809,1.809,0,0,0-.131-.687,1.7,1.7,0,0,0-.372-.564,1.744,1.744,0,0,0-.586-.382,2.031,2.031,0,0,0-.773-.141H235.8v3.549Z" transform="translate(-145.983 -44.98)" fill="#151515"/>
        <path id="Path_10721" data-name="Path 10721" d="M258.24,45.325h-1.429V45.05h3.163v.275h-1.429V49.15h-.3Z" transform="translate(-155.864 -44.98)" fill="#151515"/>
        <path id="Path_10722" data-name="Path 10722" d="M269.455,45.05h.3v1.9h2.624v-1.9h.3v4.1h-.3V47.229H269.76v1.921h-.3Z" transform="translate(-161.726 -44.98)" fill="#151515"/>
        <path id="Path_10723" data-name="Path 10723" d="M282.776,45.05h2.917v.275h-2.612v1.623h2.348v.275h-2.348v1.652h2.641v.275h-2.946Z" transform="translate(-167.902 -44.98)" fill="#151515"/>
        <path id="Path_10724" data-name="Path 10724" d="M303.413,45.05H306.3v.275h-2.583v1.693h2.319v.275h-2.319v1.857h-.3Z" transform="translate(-177.469 -44.98)" fill="#151515"/>
        <path id="Path_10725" data-name="Path 10725" d="M317.16,49.214a1.927,1.927,0,0,1-.676-.114,1.468,1.468,0,0,1-.533-.34,1.522,1.522,0,0,1-.348-.554,2.163,2.163,0,0,1-.123-.762v-2.4h.3v2.366a1.6,1.6,0,0,0,.366,1.128,1.325,1.325,0,0,0,1.022.4,1.6,1.6,0,0,0,.562-.094,1.128,1.128,0,0,0,.431-.281,1.261,1.261,0,0,0,.275-.469,2,2,0,0,0,.1-.65v-2.4h.3v2.36a2.255,2.255,0,0,1-.123.776,1.559,1.559,0,0,1-.345.565,1.452,1.452,0,0,1-.53.346,1.909,1.909,0,0,1-.682.117" transform="translate(-183.062 -44.98)" fill="#151515"/>
        <path id="Path_10726" data-name="Path 10726" d="M329.8,45.325h-1.429V45.05h3.163v.275h-1.429V49.15h-.3Z" transform="translate(-189.04 -44.98)" fill="#151515"/>
        <path id="Path_10727" data-name="Path 10727" d="M342.579,49.214a1.927,1.927,0,0,1-.676-.114,1.468,1.468,0,0,1-.533-.34,1.522,1.522,0,0,1-.348-.554,2.163,2.163,0,0,1-.123-.762v-2.4h.3v2.366a1.6,1.6,0,0,0,.366,1.128,1.326,1.326,0,0,0,1.022.4,1.6,1.6,0,0,0,.562-.094,1.128,1.128,0,0,0,.431-.281,1.261,1.261,0,0,0,.275-.469,2,2,0,0,0,.1-.65v-2.4h.3v2.36a2.255,2.255,0,0,1-.123.776,1.559,1.559,0,0,1-.345.565,1.452,1.452,0,0,1-.53.346,1.909,1.909,0,0,1-.682.117" transform="translate(-194.846 -44.98)" fill="#151515"/>
        <path id="Path_10728" data-name="Path 10728" d="M354.339,45.049h1.722a1.941,1.941,0,0,1,.673.108,1.314,1.314,0,0,1,.481.3,1.062,1.062,0,0,1,.228.343,1.074,1.074,0,0,1,.082.418v.012a1.109,1.109,0,0,1-.091.46,1.046,1.046,0,0,1-.252.349,1.3,1.3,0,0,1-.381.237,1.931,1.931,0,0,1-.477.126l1.353,1.751h-.386l-1.306-1.7h-1.342v1.7h-.3Zm1.687,2.126a1.692,1.692,0,0,0,.477-.064,1.166,1.166,0,0,0,.378-.185.879.879,0,0,0,.249-.294.843.843,0,0,0,.091-.4v-.012a.791.791,0,0,0-.308-.658,1.378,1.378,0,0,0-.87-.241h-1.4v1.851Z" transform="translate(-201.077 -44.979)" fill="#151515"/>
        <path id="Path_10729" data-name="Path 10729" d="M367.257,45.05h2.917v.275h-2.612v1.623h2.348v.275h-2.348v1.652H370.2v.275h-2.946Z" transform="translate(-207.066 -44.98)" fill="#151515"/>
      </g>
    </g>
    <g id="icone" transform="translate(0)">
      <path id="Path_10730" data-name="Path 10730" d="M10.261,10.419A12.365,12.365,0,1,1,22.668,30.978l-.3.093V29.353l.156-.054a10.744,10.744,0,1,0-7.038,0l.156.054v1.718l-.3-.093a12.363,12.363,0,0,1-5.08-20.559" transform="translate(-3.075 -3.149)" fill="#151515" fill-rule="evenodd"/>
      <path id="Path_10731" data-name="Path 10731" d="M31.858,15.929q0-.206,0-.41c0-.137-.009-.272-.016-.408s-.016-.27-.026-.4-.023-.269-.036-.4-.029-.267-.046-.4h0c-.017-.132-.035-.265-.055-.4s-.042-.263-.065-.394-.048-.261-.075-.39-.055-.259-.084-.387-.061-.256-.094-.384-.067-.253-.1-.379-.073-.251-.112-.376-.079-.248-.121-.372-.085-.246-.13-.368-.091-.243-.139-.364-.1-.24-.147-.359-.1-.237-.156-.355-.108-.234-.164-.351-.114-.231-.172-.345-.119-.229-.18-.341-.124-.225-.188-.336-.129-.222-.2-.331-.134-.218-.2-.326-.14-.215-.211-.321-.144-.211-.219-.315-.149-.207-.226-.31-.154-.2-.233-.3q-.237-.3-.488-.59c-.084-.1-.168-.191-.254-.286A15.986,15.986,0,0,0,21.4.968Q21.217.9,21.033.838,20.478.65,19.905.5q-.191-.05-.383-.094c-.129-.03-.257-.058-.387-.085s-.26-.051-.391-.075S18.483.2,18.352.184s-.264-.039-.4-.056h0c-.132-.017-.266-.032-.4-.046h0q-.2-.021-.4-.036t-.4-.026h0c-.135-.007-.271-.012-.408-.016S16.066,0,15.929,0h0q-.205,0-.41.005t-.408.016q-.2.01-.406.026t-.4.036c-.134.013-.267.029-.4.046s-.265.035-.4.056h0c-.131.02-.263.042-.393.065s-.261.048-.39.075h0c-.129.027-.258.055-.386.085h0q-.192.044-.383.094-.572.147-1.127.336h0c-.123.042-.246.085-.367.13A15.986,15.986,0,0,0,4.143,5.225c-.085.094-.17.189-.254.286q-.25.289-.487.59c-.079.1-.157.2-.233.3s-.152.205-.226.31-.147.209-.219.315-.142.213-.211.321-.137.216-.2.326-.132.22-.2.331-.127.224-.188.336-.121.226-.18.341-.116.23-.172.345-.111.233-.164.351-.105.235-.156.355-.1.239-.147.359-.094.242-.138.364-.088.245-.13.368h0c-.041.123-.082.247-.121.372s-.076.25-.112.376-.07.252-.1.379-.064.255-.094.384-.057.257-.084.387-.051.26-.075.39-.045.262-.065.394h0c-.02.131-.039.264-.055.4s-.032.266-.046.4-.025.268-.036.4-.019.27-.026.4-.012.271-.016.408,0,.273,0,.41v.013c0,.118,0,.235,0,.352,0,.048,0,.1,0,.145l.008.213c0,.062.006.123.01.185l.01.155c0,.075.01.151.016.226,0,.016,0,.031,0,.047a15.836,15.836,0,0,0,3.219,8.326l.035.046.059.075q.092.117.186.233l.011.014a15.889,15.889,0,0,0,7.645,5.184v-.006a15.957,15.957,0,0,0,4.421.716V20.628c.1.006.2.01.3.01s.2,0,.3-.01V31.854a15.954,15.954,0,0,0,4.421-.716v.006a15.889,15.889,0,0,0,7.645-5.184l.011-.014q.094-.116.186-.233l.059-.075.035-.046A15.832,15.832,0,0,0,31.8,17.265c0-.016,0-.031,0-.047.006-.075.011-.151.016-.226,0-.052.007-.1.01-.155s.007-.123.01-.185.006-.142.008-.213c0-.048,0-.1,0-.145,0-.117,0-.234,0-.352v-.013ZM15.929,19.173a3.239,3.239,0,0,1-2.4-1.065c-.07-.077-.136-.157-.2-.241s-.121-.17-.175-.259a3.287,3.287,0,0,1-.215-.419,3.138,3.138,0,0,1-.109-.3c-.016-.05-.031-.1-.044-.153-.027-.1-.048-.209-.065-.316a3.256,3.256,0,0,1,.065-1.3q.04-.155.095-.3a3.222,3.222,0,0,1,.2-.431c.05-.092.1-.181.163-.268.03-.043.06-.086.091-.127.063-.084.129-.164.2-.241a3.239,3.239,0,0,1,4.8,0c.07.077.136.157.2.241.031.041.062.084.091.127.058.086.113.176.163.268a3.223,3.223,0,0,1,.2.431q.055.149.095.3a3.256,3.256,0,0,1,.065,1.3c-.017.107-.038.212-.065.316-.013.051-.028.1-.044.153a3.138,3.138,0,0,1-.109.3,3.219,3.219,0,0,1-.215.419q-.082.134-.175.259c-.062.084-.129.164-.2.241a3.24,3.24,0,0,1-2.4,1.065M30.312,16.2v.022c0,.08,0,.159-.008.239l0,.058c0,.084-.008.168-.012.252l0,.033a14.353,14.353,0,0,1-9.641,12.717v.006a14.611,14.611,0,0,1-2.433.608l-.456.073V20.268a4.711,4.711,0,1,0-3.658,0V30.2l-.456-.073a14.611,14.611,0,0,1-2.433-.608v-.006A14.354,14.354,0,0,1,1.57,16.8l0-.033c0-.084-.009-.167-.013-.252l0-.058c0-.079-.005-.159-.007-.239V16.2c0-.089,0-.178,0-.267A14.4,14.4,0,0,1,8.774,3.453c.1-.057.2-.114.3-.17s.2-.11.308-.163.208-.1.312-.155.21-.1.316-.148.213-.095.321-.141.216-.09.325-.132.218-.085.328-.126.221-.079.333-.117.223-.074.336-.109.225-.069.339-.1.228-.064.343-.093.23-.058.346-.085h0q.174-.04.349-.076c.117-.024.234-.047.352-.068h0q.176-.031.355-.059c.119-.018.238-.035.358-.05s.24-.029.36-.041h0q.181-.019.363-.032c.122-.009.244-.017.366-.023s.245-.011.368-.014h0c.123,0,.247,0,.37,0h0q.186,0,.371,0t.368.014h0c.122.006.244.014.366.023s.243.02.364.032.241.026.36.041h0c.12.016.239.032.358.05s.238.038.356.059.235.044.352.068.233.049.349.076.231.055.346.085.229.061.343.093.227.066.34.1.224.071.336.109.222.077.332.117.219.082.328.126.217.087.325.132.215.092.321.141.212.1.316.148.209.1.312.155.206.107.308.163.2.112.3.17a14.4,14.4,0,0,1,7.23,12.476c0,.089,0,.178,0,.267" transform="translate(0)" fill="#151515"/>
    </g>
  </g>
</svg>
