<svg xmlns="http://www.w3.org/2000/svg" width="188" height="71.706" viewBox="0 0 188 71.706">
  <g id="Group_674" data-name="Group 674" transform="translate(16.076 -6584.215)">
    <text id="_2022_Intergalaxy_S.A" data-name="©2022 Intergalaxy S.A" transform="translate(77.924 6651.92)" fill="#79797a" font-size="18" font-family="AtypText-Regular, Atyp Text"><tspan x="-93.312" y="0">©2022 Intergalaxy S.A</tspan></text>
    <g id="logo_old" transform="translate(59.789 6584.215)">
      <g id="icone" transform="translate(0)">
        <path id="Path_10730" data-name="Path 10730" d="M11.041,11.2A15.025,15.025,0,1,1,26.116,36.18l-.364.113V34.205l.189-.066a13.055,13.055,0,1,0-8.552,0l.19.066v2.087l-.364-.113A15.022,15.022,0,0,1,11.041,11.2" transform="translate(-2.31 -2.365)" fill="#79797a" fill-rule="evenodd"/>
        <path id="Path_10731" data-name="Path 10731" d="M38.71,19.355q0-.25-.006-.5c0-.166-.01-.331-.019-.5s-.019-.328-.031-.492-.027-.327-.044-.489-.035-.324-.055-.486h0c-.02-.161-.043-.322-.067-.482s-.051-.319-.08-.478-.059-.317-.091-.474-.066-.314-.1-.47-.074-.312-.114-.466-.081-.308-.125-.461-.089-.305-.136-.457-.1-.3-.147-.452-.1-.3-.158-.447-.111-.3-.169-.442-.117-.292-.179-.437S37.062,11.54,37,11.4s-.131-.285-.2-.426-.138-.281-.209-.42-.144-.278-.219-.415-.151-.273-.229-.409-.157-.269-.238-.4-.163-.265-.247-.4-.17-.261-.257-.39-.175-.256-.266-.383-.181-.252-.274-.376-.187-.248-.283-.37q-.287-.366-.592-.717c-.1-.117-.2-.233-.308-.347A19.424,19.424,0,0,0,26,1.176q-.222-.081-.446-.158Q24.882.79,24.186.611,23.955.55,23.721.5c-.156-.036-.313-.07-.47-.1S22.936.331,22.777.3,22.459.248,22.3.224s-.321-.047-.482-.068h0c-.161-.02-.323-.039-.485-.055h0q-.243-.025-.489-.044T20.35.025h0c-.164-.008-.33-.015-.5-.019S19.522,0,19.355,0h0q-.249,0-.5.007t-.5.019q-.247.013-.493.031T17.379.1c-.163.016-.325.035-.486.055s-.322.043-.482.068h0c-.16.024-.319.051-.478.08s-.317.059-.474.091h0c-.157.033-.314.066-.469.1h0q-.234.054-.465.114-.7.179-1.369.408h0c-.149.051-.3.1-.446.158A19.424,19.424,0,0,0,5.034,6.348c-.1.115-.207.23-.308.347q-.3.351-.592.717c-.1.122-.19.245-.284.37s-.184.25-.274.376-.179.254-.266.383-.173.259-.256.39-.167.263-.248.4-.16.267-.238.4-.154.272-.229.409-.147.275-.219.415-.141.279-.209.42-.135.283-.2.426-.128.286-.189.431-.121.291-.179.437-.114.294-.168.442-.107.3-.158.447h0c-.05.15-.1.3-.147.452s-.093.3-.136.457-.085.306-.125.461-.078.31-.114.466-.07.313-.1.47-.063.315-.091.474-.055.318-.079.478h0c-.024.16-.047.321-.067.482s-.039.323-.056.486-.031.326-.044.489-.023.328-.031.492-.014.33-.019.5-.006.332-.006.5v.016c0,.143,0,.285.005.428,0,.059,0,.117.005.176l.01.259c0,.075.007.15.012.224l.012.188c.006.091.012.183.02.274,0,.019,0,.038.005.057A19.242,19.242,0,0,0,3.98,31.1l.042.056.072.091q.111.143.226.284l.014.017a19.306,19.306,0,0,0,9.289,6.3v-.007a19.39,19.39,0,0,0,5.372.87V25.064c.119.007.239.012.361.012s.241-.005.361-.012V38.706a19.385,19.385,0,0,0,5.371-.87v.007a19.306,19.306,0,0,0,9.289-6.3l.014-.017q.114-.141.226-.284l.072-.091.042-.056a19.237,19.237,0,0,0,3.911-10.117c0-.019,0-.038.005-.057.007-.091.014-.183.02-.274,0-.063.008-.126.012-.188s.008-.149.012-.224.007-.172.01-.259c0-.059,0-.117.005-.176,0-.143.005-.285.005-.428v-.016ZM19.355,23.3A3.936,3.936,0,0,1,16.437,22c-.085-.094-.166-.191-.242-.293s-.147-.206-.213-.315a3.993,3.993,0,0,1-.261-.51,3.813,3.813,0,0,1-.133-.362c-.02-.061-.037-.124-.053-.186-.033-.126-.059-.254-.079-.385a3.957,3.957,0,0,1,.079-1.584q.049-.189.115-.37a3.915,3.915,0,0,1,.237-.524c.061-.111.127-.22.2-.325.036-.052.072-.1.11-.154.076-.1.156-.2.242-.293a3.936,3.936,0,0,1,5.836,0c.085.094.166.191.241.293.038.05.075.1.11.154.071.1.137.214.2.325A3.916,3.916,0,0,1,23.06,18q.066.181.115.37a3.957,3.957,0,0,1,.079,1.584c-.02.13-.046.258-.079.385-.016.063-.034.125-.053.186a3.813,3.813,0,0,1-.133.362,3.911,3.911,0,0,1-.261.51q-.1.163-.213.315c-.076.1-.156.2-.241.293A3.937,3.937,0,0,1,19.355,23.3M36.831,19.68v.027c0,.1-.005.194-.009.29l0,.071c0,.1-.009.2-.015.306l0,.04A17.44,17.44,0,0,1,25.088,35.866v.008a17.753,17.753,0,0,1-2.956.738l-.554.089V24.627a5.724,5.724,0,1,0-4.445,0V36.7l-.554-.089a17.753,17.753,0,0,1-2.956-.738v-.008A17.441,17.441,0,0,1,1.908,20.414l0-.04c-.006-.1-.011-.2-.016-.306l0-.071c0-.1-.007-.193-.008-.29V19.68c0-.108,0-.216,0-.325A17.491,17.491,0,0,1,10.661,4.2c.123-.07.245-.139.369-.206s.248-.134.374-.2.252-.127.379-.188.255-.121.385-.18.259-.115.39-.171.262-.109.394-.161.265-.1.4-.153.269-.1.4-.142.271-.09.408-.133.274-.083.412-.123.277-.078.416-.113.28-.07.42-.1h0q.211-.049.424-.093c.142-.029.285-.057.428-.082h0q.214-.038.431-.072c.145-.022.289-.042.435-.061s.291-.035.438-.05h0q.22-.022.441-.039c.148-.011.3-.021.445-.028s.3-.014.447-.018h0c.149,0,.3-.005.45-.005h0q.226,0,.45.005t.447.018h0c.149.007.3.017.445.028s.3.024.442.039.293.032.438.05h0c.145.019.291.039.435.061s.289.046.432.072.286.053.428.082.284.06.424.093.281.067.42.1.278.074.416.113.276.08.413.123.272.087.408.133.27.093.4.142.267.1.4.153.264.106.394.161.261.112.39.171.257.119.385.18.254.124.379.188.25.13.374.2.247.136.369.206a17.491,17.491,0,0,1,8.785,15.16c0,.108,0,.216,0,.325" transform="translate(0 0)" fill="#79797a"/>
      </g>
    </g>
  </g>
</svg>
